<svg width="49" height="35" viewBox="0 0 49 35" fill="none" xmlns="http://www.w3.org/2000/svg">
<rect width="49" height="35" rx="2.64865" fill="white"/>
<mask id="mask0" mask-type="alpha" maskUnits="userSpaceOnUse" x="0" y="0" width="49" height="35">
<rect width="49" height="35" rx="2.64865" fill="white"/>
</mask>
<g mask="url(#mask0)">
<rect width="49" height="35" fill="#F1361D"/>
<path fill-rule="evenodd" clip-rule="evenodd" d="M17.6337 10.4249L19.3284 10.7138L20.5995 11.8714L20.8885 10.1766L22.0461 8.90554L20.3513 8.6166L19.0802 7.45898L18.7913 9.15376L17.6337 10.4249ZM22.1695 16.3525L23.6381 15.4587L25.3569 15.4984L24.4631 14.0298L24.5029 12.3111L23.0342 13.2049L21.3155 13.1651L22.2093 14.6337L22.1695 16.3525ZM20.1804 25.9478L18.7439 26.8923L18.7236 25.1732L17.7791 23.7367L19.4982 23.7164L20.9347 22.7719L20.955 24.491L21.8995 25.9275L20.1804 25.9478ZM21.4266 21.5031L23.1354 21.3137L24.6763 22.0761L24.4869 20.3673L25.2493 18.8264L23.5405 19.0158L21.9996 18.2534L22.189 19.9621L21.4266 21.5031Z" fill="#FFDC42"/>
<path fill-rule="evenodd" clip-rule="evenodd" d="M11.666 19.3965L7.55152 22.3296L9.06963 17.5101L5.00862 14.5034L10.0614 14.4579L11.666 9.6665L13.2707 14.4579L18.3234 14.5034L14.2624 17.5101L15.7805 22.3296L11.666 19.3965Z" fill="#FFDC42"/>
</g>
</svg>
