<svg width="49" height="35" viewBox="0 0 49 35" fill="none" xmlns="http://www.w3.org/2000/svg">
<rect x="0.336538" y="0.336538" width="48.3269" height="34.3269" rx="2.35577" fill="white" stroke="#F5F5F5" stroke-width="0.673077"/>
<mask id="mask0" mask-type="alpha" maskUnits="userSpaceOnUse" x="0" y="0" width="49" height="35">
<rect x="0.336538" y="0.336538" width="48.3269" height="34.3269" rx="2.35577" fill="white" stroke="white" stroke-width="0.673077"/>
</mask>
<g mask="url(#mask0)">
<path fill-rule="evenodd" clip-rule="evenodd" d="M0 11.6667H49V0H0V11.6667Z" fill="#38BB56"/>
<path fill-rule="evenodd" clip-rule="evenodd" d="M0 35.0002H49V23.3335H0V35.0002Z" fill="#DE1B27"/>
<path fill-rule="evenodd" clip-rule="evenodd" d="M2.78087 9.33301C2.53305 9.33301 2.33215 9.53391 2.33215 9.78173V11.2176C2.33215 11.4654 2.53305 11.6663 2.78087 11.6663H4.21677C4.46459 11.6663 4.66549 11.4654 4.66549 11.2176V9.78173C4.66549 9.53391 4.46459 9.33301 4.21677 9.33301H2.78087ZM7.44771 9.33301C7.19989 9.33301 6.99899 9.53391 6.99899 9.78173V11.2176C6.99899 11.4654 7.19989 11.6663 7.44771 11.6663H8.88361C9.13143 11.6663 9.33233 11.4654 9.33233 11.2176V9.78173C9.33233 9.53391 9.13143 9.33301 8.88361 9.33301H7.44771ZM11.6658 9.78173C11.6658 9.53391 11.8667 9.33301 12.1146 9.33301H13.5505C13.7983 9.33301 13.9992 9.53391 13.9992 9.78173V11.2176C13.9992 11.4654 13.7983 11.6663 13.5505 11.6663H12.1146C11.8667 11.6663 11.6658 11.4654 11.6658 11.2176V9.78173ZM16.7814 9.33301C16.5336 9.33301 16.3327 9.53391 16.3327 9.78173V11.2176C16.3327 11.4654 16.5336 11.6663 16.7814 11.6663H18.2173C18.4651 11.6663 18.666 11.4654 18.666 11.2176V9.78173C18.666 9.53391 18.4651 9.33301 18.2173 9.33301H16.7814ZM20.9995 9.78173C20.9995 9.53391 21.2004 9.33301 21.4482 9.33301H22.8841C23.132 9.33301 23.3329 9.53391 23.3329 9.78173V11.2176C23.3329 11.4654 23.132 11.6663 22.8841 11.6663H21.4482C21.2004 11.6663 20.9995 11.4654 20.9995 11.2176V9.78173ZM26.1151 9.33301C25.8673 9.33301 25.6664 9.53391 25.6664 9.78173V11.2176C25.6664 11.4654 25.8673 11.6663 26.1151 11.6663H27.551C27.7988 11.6663 27.9997 11.4654 27.9997 11.2176V9.78173C27.9997 9.53391 27.7988 9.33301 27.551 9.33301H26.1151ZM30.3332 9.78173C30.3332 9.53391 30.5341 9.33301 30.7819 9.33301H32.2178C32.4656 9.33301 32.6665 9.53391 32.6665 9.78173V11.2176C32.6665 11.4654 32.4656 11.6663 32.2178 11.6663H30.7819C30.5341 11.6663 30.3332 11.4654 30.3332 11.2176V9.78173ZM35.4488 9.33301C35.2009 9.33301 35 9.53391 35 9.78173V11.2176C35 11.4654 35.2009 11.6663 35.4488 11.6663H36.8847C37.1325 11.6663 37.3334 11.4654 37.3334 11.2176V9.78173C37.3334 9.53391 37.1325 9.33301 36.8847 9.33301H35.4488ZM39.6643 9.78173C39.6643 9.53391 39.8652 9.33301 40.113 9.33301H41.5489C41.7967 9.33301 41.9976 9.53391 41.9976 9.78173V11.2176C41.9976 11.4654 41.7967 11.6663 41.5489 11.6663H40.113C39.8652 11.6663 39.6643 11.4654 39.6643 11.2176V9.78173ZM44.7798 9.33301C44.532 9.33301 44.3311 9.53391 44.3311 9.78173V11.2176C44.3311 11.4654 44.532 11.6663 44.7798 11.6663H46.2157C46.4635 11.6663 46.6644 11.4654 46.6644 11.2176V9.78173C46.6644 9.53391 46.4635 9.33301 46.2157 9.33301H44.7798ZM2.33215 23.7816C2.33215 23.5338 2.53305 23.3329 2.78087 23.3329H4.21677C4.46459 23.3329 4.66549 23.5338 4.66549 23.7816V25.2175C4.66549 25.4653 4.46459 25.6662 4.21677 25.6662H2.78087C2.53305 25.6662 2.33215 25.4653 2.33215 25.2175V23.7816ZM7.44771 23.3329C7.19989 23.3329 6.99899 23.5338 6.99899 23.7816V25.2175C6.99899 25.4653 7.19989 25.6662 7.44771 25.6662H8.88361C9.13143 25.6662 9.33233 25.4653 9.33233 25.2175V23.7816C9.33233 23.5338 9.13143 23.3329 8.88361 23.3329H7.44771ZM11.6658 23.7816C11.6658 23.5338 11.8667 23.3329 12.1146 23.3329H13.5505C13.7983 23.3329 13.9992 23.5338 13.9992 23.7816V25.2175C13.9992 25.4653 13.7983 25.6662 13.5505 25.6662H12.1146C11.8667 25.6662 11.6658 25.4653 11.6658 25.2175V23.7816ZM16.7814 23.3329C16.5336 23.3329 16.3327 23.5338 16.3327 23.7816V25.2175C16.3327 25.4653 16.5336 25.6662 16.7814 25.6662H18.2173C18.4651 25.6662 18.666 25.4653 18.666 25.2175V23.7816C18.666 23.5338 18.4651 23.3329 18.2173 23.3329H16.7814ZM20.9995 23.7816C20.9995 23.5338 21.2004 23.3329 21.4482 23.3329H22.8841C23.132 23.3329 23.3329 23.5338 23.3329 23.7816V25.2175C23.3329 25.4653 23.132 25.6662 22.8841 25.6662H21.4482C21.2004 25.6662 20.9995 25.4653 20.9995 25.2175V23.7816ZM26.1151 23.3329C25.8673 23.3329 25.6664 23.5338 25.6664 23.7816V25.2175C25.6664 25.4653 25.8673 25.6662 26.1151 25.6662H27.551C27.7988 25.6662 27.9997 25.4653 27.9997 25.2175V23.7816C27.9997 23.5338 27.7988 23.3329 27.551 23.3329H26.1151ZM30.3332 23.7816C30.3332 23.5338 30.5341 23.3329 30.7819 23.3329H32.2178C32.4656 23.3329 32.6665 23.5338 32.6665 23.7816V25.2175C32.6665 25.4653 32.4656 25.6662 32.2178 25.6662H30.7819C30.5341 25.6662 30.3332 25.4653 30.3332 25.2175V23.7816ZM35.4488 23.3329C35.2009 23.3329 35 23.5338 35 23.7816V25.2175C35 25.4653 35.2009 25.6662 35.4488 25.6662H36.8847C37.1325 25.6662 37.3334 25.4653 37.3334 25.2175V23.7816C37.3334 23.5338 37.1325 23.3329 36.8847 23.3329H35.4488ZM39.6643 23.7816C39.6643 23.5338 39.8652 23.3329 40.113 23.3329H41.5489C41.7967 23.3329 41.9976 23.5338 41.9976 23.7816V25.2175C41.9976 25.4653 41.7967 25.6662 41.5489 25.6662H40.113C39.8652 25.6662 39.6643 25.4653 39.6643 25.2175V23.7816ZM44.7798 23.3329C44.532 23.3329 44.3311 23.5338 44.3311 23.7816V25.2175C44.3311 25.4653 44.532 25.6662 44.7798 25.6662H46.2157C46.4635 25.6662 46.6644 25.4653 46.6644 25.2175V23.7816C46.6644 23.5338 46.4635 23.3329 46.2157 23.3329H44.7798Z" fill="white" fill-opacity="0.5"/>
<mask id="path-6-inside-1" fill="white">
<path fill-rule="evenodd" clip-rule="evenodd" d="M22.1432 14.9121C21.4405 15.5522 20.9995 16.4747 20.9995 17.5001C20.9995 19.4331 22.5665 21.0001 24.4995 21.0001C26.4325 21.0001 27.9995 19.4331 27.9995 17.5001C27.9995 16.494 27.575 15.5871 26.8954 14.9487"/>
</mask>
<path d="M21.5388 14.2487C20.6573 15.0517 20.1021 16.2117 20.1021 17.5001H21.8969C21.8969 16.7376 22.2237 16.0528 22.7475 15.5755L21.5388 14.2487ZM20.1021 17.5001C20.1021 19.9287 22.0709 21.8975 24.4995 21.8975V20.1027C23.0622 20.1027 21.8969 18.9375 21.8969 17.5001H20.1021ZM24.4995 21.8975C26.9281 21.8975 28.8969 19.9287 28.8969 17.5001H27.1021C27.1021 18.9375 25.9369 20.1027 24.4995 20.1027V21.8975ZM28.8969 17.5001C28.8969 16.2361 28.3625 15.0955 27.5098 14.2946L26.2809 15.6028C26.7875 16.0787 27.1021 16.7519 27.1021 17.5001H28.8969Z" fill="#D80915" mask="url(#path-6-inside-1)"/>
<rect x="23.3342" y="16.3333" width="2.33333" height="4.66667" rx="0.897436" fill="#D80915"/>
</g>
</svg>
